<svg width="14" height="13" viewBox="0 0 14 13" fill="none" xmlns="http://www.w3.org/2000/svg">
<path d="M10.2495 6.5C9.6486 6.5 9.03499 6.55924 8.40869 6.67773C8.18018 6.02604 7.92204 5.41667 7.63428 4.84961C8.42139 4.47721 9.12175 4.00749 9.73535 3.44043C10.349 2.87337 10.8335 2.23861 11.189 1.53613C11.9084 2.14551 12.4733 2.88184 12.8838 3.74512C13.2943 4.6084 13.4995 5.52669 13.4995 6.5C13.4995 6.66081 13.491 6.85124 13.4741 7.07129C12.4416 6.69043 11.3667 6.5 10.2495 6.5ZM7.24072 4.13867C6.33512 2.57292 5.25602 1.4388 4.00342 0.736328C4.94287 0.245443 5.94157 0 6.99951 0C8.27751 0 9.45394 0.347005 10.5288 1.04102C10.2072 1.70117 9.76497 2.29785 9.20215 2.83105C8.63932 3.36426 7.98551 3.80013 7.24072 4.13867ZM6.50439 4.41797C5.61572 4.72266 4.69743 4.875 3.74951 4.875C2.76774 4.875 1.80713 4.70573 0.867676 4.36719C1.31624 3.08073 2.09066 2.03548 3.19092 1.23145C4.47738 1.80697 5.58187 2.86914 6.50439 4.41797ZM3.74951 5.6875C4.84977 5.6875 5.89925 5.50553 6.89795 5.1416C7.16878 5.68327 7.41423 6.25879 7.63428 6.86816C6.43245 7.21517 5.38509 7.77376 4.49219 8.54395C3.59928 9.31413 2.94971 10.207 2.54346 11.2227C1.90023 10.6217 1.39876 9.91292 1.03906 9.09619C0.679362 8.27946 0.499512 7.41406 0.499512 6.5C0.499512 6.04297 0.546061 5.59017 0.63916 5.1416C1.66325 5.50553 2.70003 5.6875 3.74951 5.6875ZM7.87549 7.64258C8.34945 9.25065 8.59489 10.9645 8.61182 12.7842C8.07015 12.9281 7.53271 13 6.99951 13C5.61149 13 4.35042 12.5895 3.21631 11.7686C3.53792 10.8037 4.11133 9.95736 4.93652 9.22949C5.76172 8.50163 6.74137 7.97266 7.87549 7.64258ZM8.6626 7.46484C9.1958 7.36328 9.72477 7.3125 10.2495 7.3125C11.3159 7.3125 12.3485 7.50716 13.3472 7.89648C13.1187 8.94596 12.6553 9.88118 11.957 10.7021C11.2588 11.5231 10.4146 12.1325 9.42432 12.5303C9.382 10.7275 9.12809 9.03906 8.6626 7.46484Z" fill="white"/>
</svg>
