<svg width="16" height="9" viewBox="0 0 16 9" fill="none" xmlns="http://www.w3.org/2000/svg">
<path d="M14.003 1.55515H10.2405V0.694853H14.003V1.55515ZM7.81413 4.88052C8.09545 5.26654 8.2361 5.73529 8.2361 6.28677C8.2361 6.72794 8.14233 7.11397 7.95479 7.44485C7.79069 7.75368 7.54454 8.00735 7.21634 8.20588C6.93503 8.40441 6.58339 8.55882 6.16142 8.66912C5.83322 8.75735 5.4347 8.80147 4.96584 8.80147H0.5V0H4.86035C5.14166 0 5.54019 0.0551471 6.05593 0.165441C6.36068 0.231618 6.66544 0.363971 6.97019 0.5625C7.22806 0.716912 7.43905 0.9375 7.60315 1.22426C7.7438 1.51103 7.81413 1.85294 7.81413 2.25C7.81413 2.69118 7.70278 3.06066 7.48007 3.35846C7.25737 3.65625 6.94675 3.89338 6.54822 4.06985C7.11085 4.22427 7.53282 4.49449 7.81413 4.88052ZM2.43403 3.54044H4.57904C4.97756 3.54044 5.28232 3.47426 5.4933 3.34191C5.72773 3.1875 5.84494 2.93382 5.84494 2.58088C5.84494 2.38235 5.80392 2.21691 5.72187 2.08456C5.63982 1.95221 5.52847 1.85294 5.38781 1.78676C5.24715 1.69853 5.1065 1.64338 4.96584 1.62132C4.75486 1.57721 4.57904 1.55515 4.43838 1.55515H2.43403V3.54044ZM6.19658 6.1875C6.19658 5.74632 6.06765 5.42647 5.80978 5.22794C5.55191 5.05147 5.20027 4.96324 4.75486 4.96324H2.43403V7.37868H4.68453C4.84863 7.37868 5.04789 7.35662 5.28232 7.3125C5.46986 7.26838 5.6281 7.20772 5.75703 7.13052C5.88597 7.05331 5.99732 6.92647 6.09109 6.75C6.16142 6.61765 6.19658 6.43015 6.19658 6.1875ZM15.4799 6.08824H10.6624C10.6624 6.61765 10.8148 7.02574 11.1196 7.3125C11.4009 7.55515 11.7994 7.67647 12.3151 7.67647C12.6668 7.67647 12.9833 7.58824 13.2646 7.41177C13.5459 7.21324 13.71 7.01471 13.7569 6.81618H15.3744C15.14 7.58824 14.7415 8.13971 14.1788 8.47059C13.6162 8.82353 12.9715 9 12.2448 9C11.7291 9 11.2602 8.92279 10.8382 8.76838C10.4163 8.61397 10.0529 8.38235 9.74816 8.07353C9.4434 7.78677 9.2207 7.43382 9.08004 7.01471C8.91594 6.61765 8.83389 6.17647 8.83389 5.69118C8.83389 5.20588 8.91594 4.75919 9.08004 4.3511C9.24414 3.94301 9.47857 3.58456 9.78332 3.27574C10.0881 2.98897 10.4397 2.75735 10.8382 2.58088C11.2602 2.40441 11.7291 2.31618 12.2448 2.31618C12.8074 2.31618 13.2997 2.42096 13.7217 2.63051C14.1437 2.84007 14.4953 3.12132 14.7766 3.47426C15.0345 3.80515 15.2338 4.21324 15.3744 4.69853C15.4916 5.16177 15.5268 5.625 15.4799 6.08824ZM13.6514 4.96324C13.6045 4.56618 13.4638 4.23529 13.2294 3.97059C13.0184 3.75 12.6785 3.63971 12.2096 3.63971C11.9049 3.63971 11.6587 3.68934 11.4712 3.7886C11.2837 3.88787 11.1254 4.00368 10.9965 4.13603C10.8675 4.26838 10.7914 4.41177 10.7679 4.56618C10.6976 4.72059 10.6624 4.85294 10.6624 4.96324H13.6514Z" fill="white"/>
</svg>
