<svg width="14" height="13" viewBox="0 0 14 13" fill="none" xmlns="http://www.w3.org/2000/svg">
<path d="M2.87372 0C1.55878 0 0.5 1.05878 0.5 2.37372V10.6263C0.5 11.9412 1.55878 13 2.87372 13H7.34654V7.9178H6.00267V6.08806H7.34654V4.52481C7.34654 3.29664 8.14057 2.16897 9.96969 2.16897C10.7103 2.16897 11.2579 2.24006 11.2579 2.24006L11.2148 3.94876C11.2148 3.94876 10.6563 3.94348 10.0469 3.94348C9.38727 3.94348 9.2815 4.24739 9.2815 4.75192V6.08807H11.2673L11.1807 7.91782H9.2815V13H11.1263C12.4412 13 13.5 11.9412 13.5 10.6263V2.37373C13.5 1.0588 12.4412 1.3e-05 11.1263 1.3e-05H2.87371L2.87372 0Z" fill="white"/>
</svg>
