<svg width="14" height="13" viewBox="0 0 14 13" fill="none" xmlns="http://www.w3.org/2000/svg">
<path d="M6.99776 4.33241C5.80423 4.33241 4.83022 5.30644 4.83022 6.5C4.83022 7.69356 5.80423 8.66759 6.99776 8.66759C8.1913 8.66759 9.16531 7.69356 9.16531 6.5C9.16531 5.30644 8.1913 4.33241 6.99776 4.33241ZM13.4988 6.5C13.4988 5.60239 13.5069 4.71292 13.4565 3.81694C13.4061 2.77623 13.1687 1.85261 12.4077 1.0916C11.6451 0.328955 10.7231 0.0931713 9.6824 0.0427622C8.78481 -0.00764684 7.89535 0.000483674 6.99939 0.000483674C6.1018 0.000483674 5.21234 -0.00764684 4.31638 0.0427622C3.27569 0.0931713 2.35209 0.330582 1.59109 1.0916C0.828461 1.85424 0.592681 2.77623 0.542273 3.81694C0.491865 4.71454 0.499995 5.60402 0.499995 6.5C0.499995 7.39598 0.491865 8.28708 0.542273 9.18306C0.592681 10.2238 0.830087 11.1474 1.59109 11.9084C2.35371 12.671 3.27569 12.9068 4.31638 12.9572C5.21397 13.0076 6.10343 12.9995 6.99939 12.9995C7.89698 12.9995 8.78644 13.0076 9.6824 12.9572C10.7231 12.9068 11.6467 12.6694 12.4077 11.9084C13.1703 11.1458 13.4061 10.2238 13.4565 9.18306C13.5085 8.28708 13.4988 7.39761 13.4988 6.5ZM6.99776 9.83513C5.15218 9.83513 3.6627 8.34562 3.6627 6.5C3.6627 4.65438 5.15218 3.16487 6.99776 3.16487C8.84335 3.16487 10.3328 4.65438 10.3328 6.5C10.3328 8.34562 8.84335 9.83513 6.99776 9.83513ZM10.4694 3.80718C10.0385 3.80718 9.69053 3.4592 9.69053 3.02828C9.69053 2.59736 10.0385 2.24938 10.4694 2.24938C10.9003 2.24938 11.2483 2.59736 11.2483 3.02828C11.2484 3.1306 11.2284 3.23195 11.1893 3.3265C11.1502 3.42106 11.0928 3.50698 11.0205 3.57933C10.9481 3.65169 10.8622 3.70905 10.7676 3.74815C10.6731 3.78725 10.5717 3.80731 10.4694 3.80718Z" fill="white"/>
</svg>
