<svg width="25" height="15" viewBox="0 0 25 15" fill="none" xmlns="http://www.w3.org/2000/svg">
    <path fill-rule="evenodd" clip-rule="evenodd" d="M4.88281 11.2676H3.48828C2.66927 11.2676 1.96647 10.9683 1.37988 10.3697C0.793294 9.77113 0.5 9.06103 0.5 8.23944V6.76056C0.5 5.93897 0.793294 5.22887 1.37988 4.63028C1.96647 4.03169 2.66927 3.73239 3.48828 3.73239H4.88281C5.19271 3.73239 5.4362 3.61502 5.61328 3.38028L7.00781 1.05634C7.45052 0.352113 8.09245 0 8.93359 0H10.3613C10.7819 0 11.1305 0.146714 11.4072 0.440141C11.6839 0.733568 11.8223 1.07981 11.8223 1.47887V4.50704C11.8223 5 11.5898 5.24648 11.125 5.24648C10.6602 5.24648 10.4277 5 10.4277 4.50704V1.47887H8.93359C8.6237 1.47887 8.39128 1.60798 8.23633 1.8662L6.80859 4.19014C6.34375 4.89437 5.70182 5.24648 4.88281 5.24648H3.48828C3.04557 5.24648 2.6748 5.39319 2.37598 5.68662C2.07715 5.98005 1.92773 6.33803 1.92773 6.76056V8.23944C1.92773 8.66197 2.07715 9.01995 2.37598 9.31338C2.6748 9.60681 3.04557 9.75352 3.48828 9.75352H4.88281C5.79036 9.75352 6.43229 10.1056 6.80859 10.8099L8.23633 13.1338C8.39128 13.392 8.6237 13.5211 8.93359 13.5211H10.4277V10.493C10.4277 10 10.6602 9.75352 11.125 9.75352C11.5898 9.75352 11.8223 10 11.8223 10.493V13.5211C11.8223 13.9202 11.6839 14.2664 11.4072 14.5599C11.1305 14.8533 10.7819 15 10.3613 15H8.93359C8.09245 15 7.45052 14.6479 7.00781 13.9437L5.61328 11.6197C5.4362 11.385 5.19271 11.2676 4.88281 11.2676ZM13.6464 5.08663C13.8417 4.89137 14.1583 4.89137 14.3536 5.08663L16 6.73308L17.6464 5.08663C17.8417 4.89137 18.1583 4.89137 18.3536 5.08663C18.5488 5.28189 18.5488 5.59848 18.3536 5.79374L16.7071 7.44019L18.3536 9.08663C18.5488 9.28189 18.5488 9.59848 18.3536 9.79374C18.1583 9.989 17.8417 9.989 17.6464 9.79374L16 8.14729L14.3536 9.79374C14.1583 9.989 13.8417 9.989 13.6464 9.79374C13.4512 9.59848 13.4512 9.28189 13.6464 9.08663L15.2929 7.44019L13.6464 5.79374C13.4512 5.59848 13.4512 5.28189 13.6464 5.08663Z" fill="white"/>
</svg>
