<svg width="25" height="15" viewBox="0 0 25 15" fill="none" xmlns="http://www.w3.org/2000/svg">
<path d="M0 8.67962C0 9.50122 0.319504 10.2113 0.958511 10.8099C1.59752 11.4085 2.36312 11.7078 3.25532 11.7078H4.81064C5.14823 11.7078 5.40142 11.8252 5.57021 12.0599L7.12553 14.3838C7.55957 15.0881 8.24681 15.4402 9.18723 15.4402H10.7426C11.1766 15.4402 11.5564 15.2935 11.8819 15C12.2074 14.7066 12.3702 14.3604 12.3702 13.9613V1.91906C12.3702 1.52 12.2135 1.17375 11.9 0.880326C11.5865 0.586899 11.2007 0.440186 10.7426 0.440186H9.18723C8.24681 0.440186 7.55957 0.792298 7.12553 1.49652L5.57021 3.82047C5.40142 4.05521 5.14823 4.17258 4.81064 4.17258H3.25532C2.36312 4.17258 1.59752 4.47188 0.958511 5.07047C0.319504 5.66906 0 6.37915 0 7.20075V8.67962ZM1.55532 7.20075C1.55532 6.77821 1.71809 6.42023 2.04362 6.12681C2.36915 5.83338 2.77305 5.68666 3.25532 5.68666H4.81064C5.67872 5.68666 6.36596 5.33455 6.87234 4.63033L8.42766 2.30638C8.59645 2.04817 8.84965 1.91906 9.18723 1.91906H10.8149V13.9613H9.18723C8.84965 13.9613 8.59645 13.8322 8.42766 13.574L6.87234 11.25C6.48653 10.5458 5.79929 10.1937 4.81064 10.1937H3.25532C2.77305 10.1937 2.36915 10.047 2.04362 9.75357C1.71809 9.46014 1.55532 9.10216 1.55532 8.67962V7.20075ZM14.6851 10.1937V5.68666C14.6851 5.19371 14.4199 4.94723 13.8894 4.94723C13.383 4.94723 13.1298 5.19371 13.1298 5.68666V10.1937C13.1298 10.6867 13.383 10.9331 13.8894 10.9331C14.4199 10.9331 14.6851 10.6867 14.6851 10.1937ZM16.2043 2.69371C15.6979 2.69371 15.4447 2.94019 15.4447 3.43314V12.4472C15.4447 12.9402 15.6979 13.1867 16.2043 13.1867C16.7348 13.1867 17 12.9402 17 12.4472V3.43314C17 2.94019 16.7348 2.69371 16.2043 2.69371Z" fill="white"/>
</svg>
